/* XPM */
static char *result[] = {
/* columns rows colors chars-per-pixel */
"32 32 163 2 ",
"   c #1D0E11",
".  c #200D12",
"X  c #241114",
"o  c #241418",
"O  c #2A151A",
"+  c #2F1A1B",
"@  c #31151C",
"#  c #351A1F",
"$  c #381A1C",
"%  c #371B21",
"&  c #3A1D22",
"*  c #3C2128",
"=  c #3C2223",
"-  c #411E26",
";  c #412427",
":  c #44252C",
">  c #4A2429",
",  c #4B2C2D",
"<  c #542D2F",
"1  c #4A2C31",
"2  c #593B3B",
"3  c #623B3D",
"4  c #5A3A43",
"5  c #6F3D49",
"6  c #6A3A45",
"7  c #723F4B",
"8  c #5D4044",
"9  c #614545",
"0  c #6B4245",
"q  c #6D4D4B",
"w  c #75424E",
"e  c #764B4B",
"r  c #734551",
"t  c #764852",
"y  c #755752",
"u  c #7C585A",
"i  c #7D5556",
"p  c #844B5A",
"a  c #884E58",
"s  c #8F545A",
"d  c #8E5D5D",
"f  c #865C59",
"g  c #8C5262",
"h  c #875A67",
"j  c #955F62",
"k  c #955869",
"l  c #995B6A",
"z  c #A35E6F",
"x  c #A45F72",
"c  c #866D69",
"v  c #956464",
"b  c #986369",
"n  c #8B716B",
"m  c #946572",
"M  c #927570",
"N  c #9C7D74",
"B  c #937B74",
"V  c #A26C6A",
"C  c #A3706E",
"Z  c #A66172",
"A  c #AA6474",
"S  c #AE6B76",
"D  c #AF6E7B",
"F  c #B36E75",
"G  c #A57473",
"H  c #A87374",
"J  c #AA7A77",
"K  c #A97678",
"L  c #B37073",
"P  c #BA747B",
"I  c #B17E7F",
"U  c #C07D7E",
"Y  c #9F857D",
"T  c #A8897B",
"R  c #B1807E",
"E  c #BE857F",
"W  c #A47485",
"Q  c #A87586",
"!  c #AF7D80",
"~  c #AF7C8D",
"^  c #B77580",
"/  c #BC7A81",
"(  c #A28882",
")  c #AA8F89",
"_  c #B38284",
"`  c #BD8783",
"'  c #B68981",
"]  c #BF8D8F",
"[  c #B3938A",
"{  c #BE958B",
"}  c #BF8A9C",
"|  c #B98B94",
" . c #BF9290",
".. c #B99D92",
"X. c #BCA299",
"o. c #BCA296",
"O. c #C68584",
"+. c #C58A83",
"@. c #C98C86",
"#. c #CC8E8A",
"$. c #C68C89",
"%. c #D18F8E",
"&. c #C4918A",
"*. c #CD928C",
"=. c #D1958E",
"-. c #C08D9D",
";. c #CF9490",
":. c #C79C98",
">. c #C59895",
",. c #D39691",
"<. c #D99795",
"1. c #D59993",
"2. c #D99C96",
"3. c #DC9E99",
"4. c #E09F9D",
"5. c #CFA296",
"6. c #C7A699",
"7. c #C1A89D",
"8. c #DEA19B",
"9. c #E1A29C",
"0. c #C79AA2",
"q. c #CD9FA8",
"w. c #D09FA0",
"e. c #CBACA4",
"r. c #D4A9A8",
"t. c #CBB1A3",
"y. c #C9B7AE",
"u. c #D4B5A7",
"i. c #D4B5AA",
"p. c #D3B9AD",
"a. c #DEB6B8",
"s. c #DDB3B0",
"d. c #E6ACA2",
"f. c #E8AFA4",
"g. c #E9B3A8",
"h. c #E3BBA9",
"j. c #E0B9B7",
"k. c #DCC2B3",
"l. c #ECC5AF",
"z. c #E4C3BA",
"x. c #E6CBBB",
"c. c #F1C4B2",
"v. c #F6C9B5",
"b. c #F4CBBB",
"n. c #F9CFBE",
"m. c #F5D0BF",
"M. c #FED7BD",
"N. c #FDD8BD",
"B. c #DACCC4",
"V. c #EDC6C0",
"C. c #EECCC4",
"Z. c #EDD2C3",
"A. c #E4D7CF",
"S. c #F5D4C3",
"D. c #F9D7C4",
"F. c #F1D8C7",
"G. c #F9D9C7",
"H. c #F5D5CB",
"J. c #FADDCC",
"K. c #FDDFD0",
"L. c #FEE1CF",
"P. c #FFE3D1",
"I. c None",
/* pixels */
"I.I.I.I.I.I.I.I.I.I.I.I.I.I.: I.I.I.I.I.I.I.I.I.I.I.I.I.I.I.I.I.",
"I.I.I.I.I.I.I.I.I.I.I.I.I.I.f v I.I.I.I.I.I.I.I.I.I.I.I.I.I.I.I.",
"I.I.I.I.I.I.I.I.I.I.I.I.I.I.$ 8.e # O I.I.I.I.I.I.I.I.I.I.I.I.I.",
"I.I.I.I.I.I.I.I.I.I.I.3 ,.U L @.8.9.9.9.` ; I.I.I.I.I.I.I.I.I.I.",
"I.I.I.I.I.I.I.I.I.X *.9.9.9.9.9.9.9.9.9.9.9.C I.I.I.I.I.I.I.I.I.",
"I.I.I.I.I.I.I.I.X 9.9.1.9.9.9.9.9.9.4.9.9.9.9.H I.I.I.I.I.I.I.I.",
"I.I.I.I.I.I.o # h.v.9.8.9.9.1.9.9.9.9.9.9.#.9.9.f ) * + I.I.I.I.",
"I.I.I.  8 9 u.T N.c.@.9.9.#.9.9.9.9.9.9.4.9.=.f.M.2 Y 9 8 I.I.I.",
"I.I.I.I.2 ..y M.M.l.h.9.g.$.4.#.9.9.9.9.9.9.,.n.v.5.M q 1 I.I.I.",
"I.I.I.I.: p.N M.v.h.9.f.d.1.9.@.9.9.@.9.4.9.9.#.9.9.q i.% I.I.I.",
"I.I.I.I.= i 8.9.8.9.9.9.` 3.9.=.9.9.d 9.9.*.4.,.9.9.,.u X I.I.I.",
"I.I.I.I.I.3 8.9.+.9.9.9.&.@.4.4.2.9.I %.9.V 4.3.2.9.8.< I.I.I.I.",
"I.I.I.I.I.G 9.9.2.*.2.,.V.V <.4.@.9.&.S #.,.;.d.@.9.9.C I.I.I.I.",
"I.I.I.I.I.+.9.=.8.*.O.F K.:.P #.9.*.! G P P ! #.@.9.9.,.I.I.I.I.",
"I.I.I.I.3 @.9.E C _ P s e.H.G P P P v s._ m v $.V 3.9.2., I.I.I.",
"I.I.I.I.&.*.9.L r.P.{ _ e.K.H.:.! _ w.J.P.K.P.P.V.*.8.9.J I.I.I.",
"I.I.I.  9.,.9.K P.P.P.P.L.P.P.L.K.P.P.P.P.P.P.P.P.&.1.9.3.I.I.I.",
"I.I.I.0 9.8.9.Z.P.X.c n X.x.x.P.P.P.x.k.X.B ( k.P...+.9.9.= I.I.",
"I.I.I.$.9.9.=.[ ( e.k.k.k.o.p.L.P.P.Z.7.p.k.p.t.n [ =.9.9.V I.I.",
"I.I.$ *.9.9.@.Z.S.b.b.b.F.P.P.P.P.P.P.L.G.b.b.b.D.6.9.9.9.=.I.I.",
"I.I.d 1.9.9.9.u.b.b.b.c.b.L.P.P.p.L.P.L.b.b.b.v.b.' 9.9.9.2.> I.",
"I.I./ 3.9.9.9.{ S.b.b.b.S.L.P.P.L.L.P.L.G.m.m.S.J.8.9.9.9.9.s I.",
"I.# ^ 9.1.9.8.8.J.L.K.P.L.k.L.P.L.L.Z.p.x.L.L.L.t.9.9.9.*.9.Z I.",
"I.7 S 9.+.9.9.8.>.P.P.P.P.J.y.B.A.B.y.F.P.P.P.P.&.9.9.9.+.2.A I.",
"I.l S 3.8.8.8.9.1.-.z.P.P.P.P.P.P.P.P.P.P.P.z.| 9.9.9.9.2./ A I.",
"I.Z Z P 9.#.8.9.9.> m } -.q.a.C.H.H.C.a.0.-.Q 0 9.9.8.+.8.A A o ",
"I.Z z Z 3.9.+.9.9.G I.I.O 4 h W ~ Q m t & I.I.K 9.9.2.9.S A Z I.",
"I.x w Z x 8.9.=.*.8.I.I.I.I.I.I.I.I.I.I.I.I.I.1.9.#.8.^ x Z a I.",
"I.p @ x x x #.9.9.9.2.S I.I.I.I.I.I.I.I.I.t 0 +.,.3.D x x 6 7 I.",
"I.O # - x x x x A Z Z @ I.I.I.I.I.I.I.I.I.7 Z x x x x x r I.. I.",
"I.I.& I.O g x x x g o I.I.I.I.I.I.I.I.I.I.I.r x x x l & I.I.I.I.",
"I.I.I.I.I.I.I.I.I.I.I.I.I.I.I.I.I.I.I.I.I.I.I.I.I.I.I.I.I.I.I.I."
};
