/* XPM */
static char *result[] = {
/* columns rows colors chars-per-pixel */
"32 32 175 2 ",
"   c #250B0D",
".  c #290E09",
"X  c #260D14",
"o  c #2A0E15",
"O  c #310E15",
"+  c #261115",
"@  c #2B1114",
"#  c #2C131A",
"$  c #321314",
"%  c #341915",
"&  c #3D1814",
"*  c #32151C",
"=  c #351B1C",
"-  c #3A161C",
";  c #341C22",
":  c #3B1C24",
">  c #3A2226",
",  c #37242A",
"<  c #3E242A",
"1  c #421A21",
"2  c #491B23",
"3  c #442522",
"4  c #482726",
"5  c #432925",
"6  c #4B2927",
"7  c #45272C",
"8  c #42292E",
"9  c #4C2D2D",
"0  c #4D312A",
"q  c #52312C",
"w  c #432930",
"e  c #482F36",
"r  c #5A2C32",
"t  c #4A3036",
"y  c #4C373D",
"u  c #5C3234",
"i  c #5F3D35",
"p  c #51393D",
"a  c #5D3E3B",
"s  c #563C35",
"d  c #5E433C",
"f  c #64453D",
"g  c #64483E",
"h  c #553D43",
"j  c #624343",
"k  c #694342",
"l  c #644A43",
"z  c #6B4E44",
"x  c #774D4B",
"c  c #734E45",
"v  c #6C5146",
"b  c #6E524B",
"n  c #72554B",
"m  c #76594C",
"M  c #7B584E",
"N  c #6F5550",
"B  c #775C53",
"V  c #7A5C53",
"C  c #735858",
"Z  c #7B5259",
"A  c #7D6256",
"S  c #815B57",
"D  c #806357",
"F  c #81655A",
"G  c #88615A",
"H  c #84685B",
"J  c #8C6A5F",
"K  c #94615E",
"L  c #945D61",
"P  c #8B6C63",
"I  c #826665",
"U  c #966264",
"Y  c #906F65",
"T  c #976868",
"R  c #9A6869",
"E  c #8B7167",
"W  c #8F736C",
"Q  c #927365",
"!  c #947569",
"~  c #98746B",
"^  c #957A6C",
"/  c #997D6F",
"(  c #9D6E70",
")  c #907771",
"_  c #967E70",
"`  c #9E7C72",
"'  c #A0736E",
"]  c #A27671",
"[  c #A37C73",
"{  c #A8777B",
"}  c #AD7C78",
"|  c #9F8374",
" . c #9B8479",
".. c #A38477",
"X. c #A98776",
"o. c #A5827A",
"O. c #A78E7B",
"+. c #AA8C7D",
"@. c #AB857D",
"#. c #B5837B",
"$. c #AC7B83",
"%. c #AD8180",
"&. c #AE8D80",
"*. c #A48A83",
"=. c #B48383",
"-. c #BC858A",
";. c #BB8B8A",
":. c #AC9282",
">. c #B19484",
",. c #B89184",
"<. c #B39986",
"1. c #BA9588",
"2. c #BB9B8A",
"3. c #B5998A",
"4. c #BF8E94",
"5. c #BAA08C",
"6. c #BDA392",
"7. c #BCABA9",
"8. c #C28F8E",
"9. c #C1938E",
"0. c #C69B8F",
"q. c #C38B93",
"w. c #C49192",
"e. c #C79A93",
"r. c #C79298",
"t. c #CA9498",
"y. c #DC9E97",
"u. c #C2A795",
"i. c #C5AD96",
"p. c #C1A69A",
"a. c #C6AE9A",
"s. c #CAAF9B",
"d. c #D6A59E",
"f. c #DCAB9D",
"g. c #C8B097",
"h. c #C9B299",
"j. c #CAAFA1",
"k. c #D6A9A2",
"l. c #D8A8A4",
"z. c #D7ADA8",
"x. c #C9B0A2",
"c. c #D3B2A1",
"v. c #DDB1A8",
"b. c #DBB9AA",
"n. c #DCB2A6",
"m. c #C4B7B3",
"M. c #DFBAB0",
"N. c #E4B7AB",
"B. c #E0BFA9",
"V. c #E1B5B0",
"C. c #E5BBB2",
"Z. c #DDC0AE",
"A. c #DFC0B3",
"S. c #D3C4BF",
"D. c #E4C3AE",
"F. c #EBC5B2",
"G. c #EDC9B3",
"H. c #E4C3B8",
"J. c #EFC5B8",
"K. c #ECCCBA",
"L. c #F1CDB6",
"P. c #F4CDBC",
"I. c #EFD0B9",
"U. c #F5D4BD",
"Y. c #FBD6BD",
"T. c #F6D8BD",
"R. c #FCD9BE",
"E. c #F7CFC0",
"W. c #F7D7C1",
"Q. c #FCD6C2",
"!. c #FDDAC2",
"~. c #FCD7C8",
"^. c #F4D8CA",
"/. c #FBD9C9",
"(. c None",
/* pixels */
"(.(.(.(.(.(.(.(.(.(.(.(.(.X (.(.(.(.(.(.(.(.(.(.(.(.(.(.(.(.(.(.",
"(.(.(.(.(.(.(.(.; (.(.# < o   (.(.(.(.(.(.(.(.(.(.(.(.(.(.(.(.(.",
"(.(.(.(.(.(.(.(.+ *   E P = v D A n 5   # w # + + (.(.(.(.(.(.(.",
"(.(.(.(.(.(.(.(.% @ v i.O.a.a.h.g.h.h.h.5.:.O.I # (.(.(.(.(.(.(.",
"(.(.(.(.(.(.8 o $ E u.g.h.a.h.h.h.g.h.g.h.g.d   (.(.(.(.(.(.(.(.",
"(.(.(.(.w o C 6.| 5.h.h.h.h._ ^ l h.h.h.h.g.a.5 = (.(.(.(.(.(.(.",
"(.(.(., o 6.h.a.h.h.h.h.h.g X.a ..g u.h.h.h.h.s.% 7 (.(.(.(.(.(.",
"(.(.(.* X @ m h.h.g.h.h.:.` n @.G P D h.5.h.h.h.h.= = (.(.(.(.(.",
"(.(.(.(.@ p.h.h.h.v H u.g @.V S ] @.P i./ h.h.h.h.x.l + (.(.(.(.",
"(.(.(.t b g.h.h.h.D ! n J 2.F.P.!.!.K.M <.B h.g.v E B @ y (.(.(.",
"(.(.(.* :.h.h.h.<.~ c.W.!.!.!.R.!.R.!.[ 5.#.u.2.u.m 9 8 (.(.(.(.",
"(.(.(.  i.h.i.h.Q T.W.Q.!.!.!.!.!.!.!.F.P y.c h.g B d * (.(.(.(.",
"(.(.(.= h.h.g.:.A Q.W.W.D.!.!.!.R.R.o.~ & N.e.` ^ h.i.X (.(.(.(.",
"(.(.X *.h.h.5.v A !.Q 2.T.!.!.R.R.R.!.!.k P.P.&.z 0 % @ (.(.(.(.",
"(.w < > g.p.O._ ! R.R.R.R.R.!.!.R.!.!.!.Y.Q./.b.n u.# X (.(.(.(.",
"(.h p o h.z H b.f I.!.R.I.5.L.!.!.G.X.@.4 3 z M.g M 6 o # (.(.(.",
"(.(.(.# s n B c.c.E x.b a A U.R.!.!.g ) l V A A &.2.~.H.X (.(.(.",
"(.(.(.; . 6 <.Z.^.B 7.8 j P +.R.R.R.T.!.!.Y.!.~.b.n.P.W.4 (.(.(.",
"(.(.(.t % N 0 B ^ >.U.R././.!.R.Y.R.!.!.L.G.G.L.C.z.] ] a (.(.(.",
"(.(.(.+ G.!.P.i Y.Y.R.Y.Y.R.R.Y.G.Y.R.R.G.F.F.F.V.T =.q.9 (.(.(.",
"(.(.(.@ Q.h.!.x !.L.G.F.F.G.Y.R.T.D.!.R.G.F.F.L.N.( L t.O (.(.(.",
"(.(.(.o J.8.K U H.G.F.G.F.G.R.Y.Y.,.!.R.Y.Y.Y.Y.k.;.L ( @ (.(.(.",
"(.(.(.; ,.8.U R ;.J.F.G.F.Y.Y.!.Y.[ !.R.R.R.R.Y.e.L q.$ y (.(.(.",
"(.(.(.(.$ t.-.w.x Y.Y.!.~.!.!.!.!.R.!.!.D.R.!.Y.w.$.2 o (.(.(.(.",
"(.(.(.(.= u r.$.U f.Y.R.!.L.I.W.U.D.6.X.i /.~.!.~ o ; (.(.(.(.(.",
"(.(.(.(.(.o - S r } T.Y.R.!.! ! m.S. .! !.!.~.d.q w (.(.(.(.(.(.",
"(.(.(.(.(.(.(.< 7 1 ;.W.!.!.!.!.T.T.R.R.!.~.H.@.o (.(.(.(.(.(.(.",
"(.(.(.(.(.(.(.(.(.* u ;.C.~.!.R.R.Y.R.!.!.N.=.O : (.(.(.(.(.(.(.",
"(.(.(.(.(.(.(.(.(.(.# 1 %.q.J.W.!.!.!.~.l.{ O X (.(.(.(.(.(.(.(.",
"(.(.(.(.(.(.(.(.(.(.(.: # 7 ] -.-.-.-.$.j o < (.(.(.(.(.(.(.(.(.",
"(.(.(.(.(.(.(.(.(.(.(.(.(.; * O 1 2 O o = (.(.(.(.(.(.(.(.(.(.(.",
"(.(.(.(.(.(.(.(.(.(.(.(.(.(.(.(.(.(.(.(.(.(.(.(.(.(.(.(.(.(.(.(."
};
