/* XPM */
static char *result[] = {
/* columns rows colors chars-per-pixel */
"32 32 121 2 ",
"   c #1D0C11",
".  c #260C11",
"X  c #2A0F15",
"o  c #2B0F18",
"O  c #310F17",
"+  c #2D1117",
"@  c #2E131A",
"#  c #2B181C",
"$  c #301317",
"%  c #32151C",
"&  c #3A131B",
"*  c #35191E",
"=  c #331720",
"-  c #351C22",
";  c #3A1E24",
":  c #3C2126",
">  c #3C2329",
",  c #432124",
"<  c #43252D",
"1  c #462B2A",
"2  c #4B2F2E",
"3  c #4F3229",
"4  c #51322F",
"5  c #452931",
"6  c #4B2D33",
"7  c #4E3035",
"8  c #553634",
"9  c #5A3437",
"0  c #553832",
"q  c #5C3E34",
"w  c #52353A",
"e  c #59363A",
"r  c #57393C",
"t  c #5A3C3C",
"y  c #603B3E",
"u  c #5D403E",
"i  c #63453A",
"p  c #5B3D42",
"a  c #633F40",
"s  c #5E4145",
"d  c #5F4248",
"f  c #614345",
"g  c #6B4646",
"h  c #6A4C45",
"j  c #604348",
"k  c #68454B",
"l  c #6D4E4D",
"z  c #6F5145",
"x  c #6C524B",
"c  c #705248",
"v  c #7C544E",
"b  c #6E5250",
"n  c #755354",
"m  c #775B55",
"M  c #795E55",
"N  c #7A5D5B",
"B  c #7F6256",
"V  c #83685D",
"C  c #885D67",
"Z  c #8C6669",
"A  c #896C6C",
"S  c #92646D",
"D  c #926B6D",
"F  c #8D7369",
"G  c #907266",
"H  c #94736B",
"J  c #947869",
"K  c #8F6E71",
"L  c #8F7A76",
"P  c #9B7579",
"I  c #977A79",
"U  c #A7877B",
"Y  c #9F8982",
"T  c #AB928B",
"R  c #B29687",
"E  c #B4958D",
"W  c #BD9F8B",
"Q  c #BC8D94",
"!  c #B29192",
"~  c #BE969C",
"^  c #C1939A",
"/  c #C59F9C",
"(  c #C5A997",
")  c #C8AA95",
"_  c #C0A79B",
"`  c #CAAF9C",
"'  c #D3B39E",
"]  c #C3A6A2",
"[  c #C9A5A1",
"{  c #D2A9A5",
"}  c #D0B2A4",
"|  c #D6B9A3",
" . c #D9BBA4",
".. c #D4B5AE",
"X. c #D2BBB5",
"o. c #D8BCB7",
"O. c #D7BBB8",
"+. c #DBC2B6",
"@. c #E8C8AF",
"#. c #E6C9B4",
"$. c #EBCBB2",
"%. c #E3C9B8",
"&. c #F4CAB5",
"*. c #F6CCBB",
"=. c #EFD0B7",
"-. c #F4D2BB",
";. c #F9D9BE",
":. c #E3C5C4",
">. c #E1C8C5",
",. c #EECCC4",
"<. c #EFD7C6",
"1. c #F1D4C2",
"2. c #FAD6C5",
"3. c #FEDCC6",
"4. c #F4D6CD",
"5. c #F6DAC9",
"6. c #FDDFCD",
"7. c #FCDCD1",
"8. c #FDE2CE",
"9. c #FDE2D3",
"0. c None",
/* pixels */
"0.0.0.0.0.0.0.0.0.0.0.0.0.0.; % + - 5 0.0.0.0.0.0.0.0.0.0.0.0.0.",
"0.0.0.0.0.0.0.0.0.0.0.0.> . w p r p d < @ 0.0.0.0.0.0.0.0.0.0.0.",
"0.0.0.0.0.0.0.0.0.0.0.- > r U =.-.$.' G u 1 % 0.0.0.0.0.0.0.0.0.",
"0.0.0.0.0.0.0.0.0.0.- > i $.$.| W ' @.;.#.u 7 - 0.0.0.0.0.0.0.0.",
"0.0.0.0.0.0.0.0.0.0.+ h -. .z u f h u x ' @.r # 0.0.0.0.0.0.0.0.",
"0.0.0.0.0.0.0.0.0.- 3 #.` q s r s s f d u  .R r > 0.0.0.0.0.0.0.",
"0.0.0.0.0.0.0.0.0.@ z  .B M x : f s p s s h -.r % 0.0.0.0.0.0.0.",
"0.0.0.0.0.0.0.0.0.* ) z F 1 u e f f 7 s t i } t % 0.0.0.0.0.0.0.",
"0.0.0.0.0.0.0.0.0.< ( i s s l t f f a f t s B V @ 0.0.0.0.0.0.0.",
"0.0.0.0.0.0.0.0.0.6 B 1 e I O.9 f f e t L s t J $ 0.0.0.0.0.0.0.",
"0.0.0.0.0.0.0.0.0.7 0 K N X.O.F j 9 A y ! t r M % 0.0.0.0.0.0.0.",
"0.0.0.0.0.0.0.0.+ >.t t g h t 4.Z 4 n D :.t 0 0 - 0.0.0.0.0.0.0.",
"0.0.0.0.0.0.0.0., Z t 7.3.3.9.9.9.o.J v L a 9 ] + 0.0.0.0.0.0.0.",
"0.0.0.0.0.0.0.0.+ k 9 ,.&.&.3.9.9.9.3.2.6...e P ; 0.0.0.0.0.0.0.",
"0.0.0.0.0.0.0.0.+ 6 r *.&.&.8.8.1.6.1.&.&.E t Q % 0.0.0.0.0.0.0.",
"0.0.0.0.0.0.0.0.@ t 8 4.8.8.8.9.5.6.2.*.*.n e n 0.0.0.0.0.0.0.0.",
"0.0.0.0.0.0.0.0.- a , / 9.9.x T %.<.%.6.8.t < % 0.0.0.0.0.0.0.0.",
"0.0.0.0.0.0.0.0.o f ; , [ 9.9._ Y T 7.9.5.t & > 0.0.0.0.0.0.0.0.",
"0.0.0.0.0.0.0.0.> d ; 0.< ~ ,.9.9.9.5.{ 9 f @ 0.0.0.0.0.0.0.0.0.",
"0.0.0.0.0.0.0.0.w d ; 0.0.O C Q ~ ~ S & * j # 0.0.0.0.0.0.0.0.0.",
"0.0.0.0.0.0.0.> p s > 0.0.0.0.5 ; > 0.0.7 d % 0.0.0.0.0.0.0.0.0.",
"0.0.0.0.0.0.0.% p d 7 0.0.0.0.0.0.0.0.> s s . 0.0.0.0.0.0.0.0.0.",
"0.0.0.0.0.0.0.o p j w 0.0.0.0.0.0.0.0.@ p s . 0.0.0.0.0.0.0.0.0.",
"0.0.0.0.0.0.0.@ p f w 0.0.0.0.0.0.0.0.; f d % 0.0.0.0.0.0.0.0.0.",
"0.0.0.0.0.0.0.@ 7 j 6 0.0.0.0.0.0.0.0.w j r * 0.0.0.0.0.0.0.0.0.",
"0.0.0.0.0.0.0.+ 6 d > 0.0.0.0.0.0.0.# d j 6   0.0.0.0.0.0.0.0.0.",
"0.0.0.0.0.0.0.@ 5 p ; 0.0.0.0.0.0.0.% a d < 0.0.0.0.0.0.0.0.0.0.",
"0.0.0.0.0.0.0.# < 5 = 0.0.0.0.0.0.0.# j 6 - 0.0.0.0.0.0.0.0.0.0.",
"0.0.0.0.0.0.0.0.o 5 @ 0.0.0.0.0.0.0.% r 5 @ 0.0.0.0.0.0.0.0.0.0.",
"0.0.0.0.0.0.0.0.0.@ @ 0.0.0.0.0.0.0.# 5 < # 0.0.0.0.0.0.0.0.0.0.",
"0.0.0.0.0.0.0.0.0.0.0.0.0.0.0.0.0.0.; ; @ 0.0.0.0.0.0.0.0.0.0.0.",
"0.0.0.0.0.0.0.0.0.0.0.0.0.0.0.0.0.0.0.- 0.0.0.0.0.0.0.0.0.0.0.0."
};
