/* XPM */
static char *result[] = {
/* columns rows colors chars-per-pixel */
"32 32 101 2 ",
"   c #06050D",
".  c #0B0710",
"X  c #17151E",
"o  c #18141D",
"O  c #111A1E",
"+  c #1D211F",
"@  c #271D25",
"#  c #162121",
"$  c #1B2426",
"%  c #162827",
"&  c #1D2429",
"*  c #1D2B2C",
"=  c #1C3331",
"-  c #21252B",
";  c #232C2D",
":  c #292E2A",
">  c #312825",
",  c #33292F",
"<  c #20302E",
"1  c #3E332A",
"2  c #252E32",
"3  c #2B2B33",
"4  c #322D33",
"5  c #332D38",
"6  c #253334",
"7  c #2B3234",
"8  c #2D3835",
"9  c #2D3539",
"0  c #263D3B",
"q  c #2C3B3B",
"w  c #313237",
"e  c #3A3534",
"r  c #363833",
"t  c #34343B",
"y  c #3B343B",
"u  c #343A3D",
"i  c #38393D",
"p  c #42332B",
"a  c #423631",
"s  c #4A3730",
"d  c #443934",
"f  c #4A3C34",
"g  c #40363D",
"h  c #423C3E",
"j  c #4B3E38",
"k  c #2D423F",
"l  c #4B423C",
"z  c #51463D",
"x  c #2D3F40",
"c  c #393640",
"v  c #353C41",
"b  c #3D3C42",
"n  c #443D44",
"m  c #493F46",
"M  c #3E4246",
"N  c #474441",
"B  c #4C4344",
"V  c #464049",
"C  c #4C444C",
"Z  c #464B4F",
"A  c #4F4E49",
"S  c #524647",
"D  c #564B46",
"F  c #5A4A44",
"G  c #51454E",
"H  c #544B4E",
"J  c #5B4E4A",
"K  c #57534E",
"L  c #59534C",
"P  c #474C50",
"I  c #4C4A51",
"U  c #504750",
"Y  c #534B52",
"T  c #5B4F54",
"R  c #4F5456",
"E  c #565055",
"W  c #5D5456",
"Q  c #56545A",
"!  c #5C545B",
"~  c #575A5F",
"^  c #5D595E",
"/  c #65534C",
"(  c #66594E",
")  c #625B54",
"_  c #6A5E56",
"`  c #63585C",
"'  c #6A5C5A",
"]  c #6E625B",
"[  c #72655E",
"{  c #595960",
"}  c #655D64",
"|  c #6A5E66",
" . c #6C5F68",
".. c #5E6167",
"X. c #656167",
"o. c #6A6166",
"O. c #666168",
"+. c #6A6169",
"@. c #716462",
"#. c #766861",
"$. c None",
/* pixels */
"$.$.$.$.$.$.$.$.$.$.$.$.$.$.$.$.$.$.$.$.$.$.$.$.$.$.$.$.$.$.$.$.",
"$.$.$.$.k * % # $ $.$.$.$.$.$.$.$.$.$.$.$.$.$.$.$.$.$.$.$.$.$.$.",
"$.$.$.6 v M P u ; $.$.$.$.$.$.$.$.$.$.$.$.$.$.$.$.$.$.$.$.$.$.$.",
"$.$.$.- b E O.O.Q q $.$.$.$.$.$.$.$.$.$.$.$.$.$.$.$.$.$.$.$.$.$.",
"$.$.k b O.m  . .+.u $.$.$.$.$.$.$.$.$.$.$.$.$.$.$.$.$.$.$.$.$.$.",
"$.$.7 $ ^ Y Y  . .W ; $.$.$.$.$.$.$.$.$.$.$.$.$.$.$.$.$.$.$.$.$.",
"$.$.$.9 i } m  .| o.k & $.$.$.$.$.$.$.$.$.$.$.$.$.$.$.$.$.$.$.$.",
"$.$.$.$.$ Q Y T o.o.` ; $.$.$.$.$.$.$.$.$.$.$.$.$.$.$.$.$.$.$.$.",
"$.$.$.$.$.u X.n } o.O.Q * q $.$.$.$.$.$.$.$.$.$.$.$.$.$.$.$.$.$.",
"$.$.$.$.$.6 { Q Y X.X.X.I & - $.$.$.$.$.$.$.$.$.$.$.$.$.$.$.$.$.",
"$.$.$.$.$.$.9 O.V } O.o.| b 9 v 6 * $.$.$.$.$.$.$.$.$.$.$.$.$.$.",
"$.$.$.$.$.$.9 Q Q U +.|  .E I c 2 < - $.$.$.$.$.$.$.$.$.$.$.$.$.",
"$.$.$.$.$.$.; t } C | o.} } 3   . 7 2 $.$.$.$.$.$.$.$.$.$.$.$.$.",
"$.$.$.$.$.$.$.; n T U } o.O.I . o i 9 6 $.$.$.$.$.q 8 * < 0 $.$.",
"$.$.$.$.$.$.$.6 7 U n } | +.O.5 m o b ; + k - : r K ) o.b q x $.",
"$.$.$.$.$.$.$.q 2 y ! C +.} ! G @ , e r l L L ] d [ ' B E ..6 $.",
"$.$.$.$.$.$.$.$.& c ! m | m G g T S J D z _ 1 _ s F a > Q } 2 $.",
"$.$.$.$.$.$.$.$.6 3 c m ` H ` m @.F f _ 1 _ f F / p F d m { x $.",
"$.$.$.$.$.$.$.$.$.q - c Q ` m / L [ p ( l l ( 1 [ j ' ' B v 2 $.",
"$.$.$.$.$.$.$.$.$.$.# & b C n W S o.F f _ l ) B l N m h 7 * $.$.",
"$.$.$.$.$.$.$.$.$.$.6 O 5 n c n ) m H F C l i u u 9 9 6 $.$.$.$.",
"$.$.$.$.$.$.$.$.$.$.$.* b Y n c ! y 4 Y 9 9 * q $.$.$.$.$.$.$.$.",
"$.$.$.$.$.$.$.$.$.$.$.$ 2 b n n G 4 b Z 2 $.$.$.$.$.$.$.$.$.$.$.",
"$.$.$.$.$.$.$.$.$.$.$.$.2 c n ! C H i 2 $.$.$.$.$.$.$.$.$.$.$.$.",
"$.$.$.$.$.$.$.$.$.$.$.$.$.2 n } G n Z O - $.$.$.$.$.$.$.$.$.$.$.",
"$.$.$.$.$.$.$.$.$.$.$.$.$.; b I U h 7 6 = $.$.$.$.$.$.$.$.$.$.$.",
"$.$.$.$.$.$.$.$.$.$.$.$.$.< 6 P u 2 9 0 $.$.$.$.$.$.$.$.$.$.$.$.",
"$.$.$.$.$.$.$.$.$.$.$.$.$.< k 6 9 $.$.$.$.$.$.$.$.$.$.$.$.$.$.$.",
"$.$.$.$.$.$.$.$.$.$.$.$.$.$.$.$.$.$.$.$.$.$.$.$.$.$.$.$.$.$.$.$.",
"$.$.$.$.$.$.$.$.$.$.$.$.$.$.$.$.$.$.$.$.$.$.$.$.$.$.$.$.$.$.$.$.",
"$.$.$.$.$.$.$.$.$.$.$.$.$.$.$.$.$.$.$.$.$.$.$.$.$.$.$.$.$.$.$.$.",
"$.$.$.$.$.$.$.$.$.$.$.$.$.$.$.$.$.$.$.$.$.$.$.$.$.$.$.$.$.$.$.$."
};
