/* XPM */
static char *c8291c9d12c443a6b455bc6c49932106xVcPLQgoy48b2vmz[] = {
/* columns rows colors chars-per-pixel */
"21 19 11 1 ",
"  c #313131",
". c #196363",
"X c gray32",
"o c #AD5242",
"O c #D66342",
"+ c #F79429",
"@ c #F7F729",
"# c gray74",
"$ c #DEBD84",
"% c #F7E69C",
"& c white",
/* pixels */
"&&&&&&&&&&&&&&&&& &&&",
"&&&&&   &&&&&&&& O &&",
"&&&  ++O &&&&&&& OO &",
"&& +++++O &&&&&& OO &",
"&& ++++++ &&&&& OO+O ",
"& ++++O++O &&&& O+@O ",
"& +++O& ++ &&&& O@@O ",
" ++++o. +O &&&&& @O &",
" +++++  OO &&&&& O &&",
"& O+++OOOOO &&&& + &&",
"&&  OOOOOOO &&& ++ &&",
"&&&&  $OOXOO & O+ &&&",
"&&&&& %%Xo+OO OOO &&&",
"&&&&& %%X+OXOOXO &&&&",
"&&&& oo%%XXOOOX &&&&&",
"&&&& #oX$$OOOo &&&&&&",
"&&&&&    XoOo &&&&&&&",
"&&&&&&&&& &o& &&&&&&&",
"&&&&&&&&&&   &&&&&&&&"
};
