/* XPM */
static char *_0bf7789924c4459b6631a5f208569feDcdLcFeIHmzGcS9M[] = {
/* columns rows colors chars-per-pixel */
"21 17 12 1 ",
"  c #313131",
". c #3A736B",
"X c gray32",
"o c #8C5229",
"O c #BD6B21",
"+ c #D68C29",
"@ c #CEAD5A",
"# c #529C9C",
"$ c #73C5F7",
"% c gray74",
"& c #F7E68C",
"* c white",
/* pixels */
"***    *********   **",
"** #$$$  ****** $$$ *",
"* $$$$$$#  *** $$$## ",
"* $$$$$$$XO  * $$#X. ",
" $$$$#$$$#X+O #$#X## ",
" $$$.* $$#Xo+OX##X# *",
" $$$#  $##X*o+X##X **",
"* $$$ o##X%*o+OX# ***",
"** X####X#X%*oOX# ***",
"** #XXX@&X$X*ooX ****",
"***  &&&X$$$XoO *****",
"***** @@X$$#XoO *****",
"**** .X&&X#XX% ******",
"**** .. @@XX#X ******",
"*****  * X$## *******",
"********* #.# *******",
"**********   ********"
};
