/* XPM */
static char *_50285cb35204ed9bdc1b0e64c1a7acbil2TddwI1fqRlo0R[] = {
/* columns rows colors chars-per-pixel */
"21 20 10 1 ",
"  c #313131",
". c gray32",
"X c #B57329",
"o c #A56B31",
"O c #F76352",
"+ c #BD9421",
"@ c #C5A529",
"# c #F7D631",
"$ c #9C8442",
"% c white",
/* pixels */
"%%%%%%  %%%%%%%%%%%%%",
"%%%%% . %%%%%%%%%  %%",
"%%%%% . %%%%%%%% #@ %",
"%%%% @@ %%%%    #@@@ ",
"%%%% @$ %%  ...#@@@@ ",
"%%%  @ %% ##..@@@@@ %",
"%% @###  ###.@@@@@ %%",
"% ######$##.@@@@@ %%%",
"% ####@###$  @@@ %%%%",
" ####@% ### % @@@ %%%",
" #$### .#### % @@ %%%",
"% #####OO#### @@ %%%%",
" +.@###OO###X.o %%%%%",
"%   @@##.#####.o %%%%",
"%%%% @@.##.##X. %%%%%",
"%%%% @@#..#### %%%%%%",
"%%%%% @@#####. %%%%%%",
"%%%%%%   #### %%%%%%%",
"%%%%%%%%%  # %%%%%%%%",
"%%%%%%%%%%  %%%%%%%%%"
};
